HIERARCHY
ROOT Hips
{
	OFFSET 0.000000 0.000000 0.000000
	CHANNELS 6 Xposition Yposition Zposition Xrotation Yrotation Zrotation
	JOINT LeftUpLeg_virtual
	{
		OFFSET 0.000000 0.000000 0.000000
		CHANNELS 3 Xrotation Yrotation Zrotation
		JOINT LeftUpLeg
		{
			OFFSET 10.205400 -3.823500 0.155100
			CHANNELS 3 Xrotation Yrotation Zrotation
			JOINT LeftLeg
			{
				OFFSET 0.708757 -12.982077 0.567790
				CHANNELS 3 Xrotation Yrotation Zrotation
				JOINT LeftFoot
				{
					OFFSET -0.708756 -10.717838 -2.184338
					CHANNELS 3 Xrotation Yrotation Zrotation
					JOINT LeftToeBase
					{
						OFFSET 0.108149 -7.191104 7.560241
						CHANNELS 3 Xrotation Yrotation Zrotation
						JOINT LeftToe_End
						{
							OFFSET 0.070230 0.081724 4.490308
							CHANNELS 3 Xrotation Yrotation Zrotation
							End Site
							{
								OFFSET 0 0 0
							}
						}
					}
				}
			}
		}
	}
	JOINT RightUpLeg_virtual
	{
		OFFSET 0.000000 0.000000 0.000000
		CHANNELS 3 Xrotation Yrotation Zrotation
		JOINT RightUpLeg
		{
			OFFSET -10.205400 -3.823500 0.005500
			CHANNELS 3 Xrotation Yrotation Zrotation
			JOINT RightLeg
			{
				OFFSET -0.708756 -12.982134 0.610632
				CHANNELS 3 Xrotation Yrotation Zrotation
				JOINT RightFoot
				{
					OFFSET 0.708754 -10.717769 -1.945823
					CHANNELS 3 Xrotation Yrotation Zrotation
					JOINT RightToeBase
					{
						OFFSET -0.108140 -7.191069 7.372968
						CHANNELS 3 Xrotation Yrotation Zrotation
						JOINT RightToe_End
						{
							OFFSET -0.070227 0.081735 4.479403
							CHANNELS 3 Xrotation Yrotation Zrotation
							End Site
							{
								OFFSET 0 0 0
							}
						}
					}
				}
			}
		}
	}
	JOINT Spine_virtual
	{
		OFFSET 0.000000 0.000000 0.000000
		CHANNELS 3 Xrotation Yrotation Zrotation
		JOINT Spine
		{
			OFFSET 0.000000 6.876099 0.125700
			CHANNELS 3 Xrotation Yrotation Zrotation
			JOINT Spine1
			{
				OFFSET 0.000000 5.730043 0.104720
				CHANNELS 3 Xrotation Yrotation Zrotation
				JOINT Spine1_split
				{
					OFFSET 0.000000 5.730043 0.104720
					CHANNELS 3 Xrotation Yrotation Zrotation
					JOINT Spine2
					{
						OFFSET 0.000000 5.730043 0.104720
						CHANNELS 3 Xrotation Yrotation Zrotation
						JOINT Neck_virtual
						{
							OFFSET 0.000000 0.000000 0.000000
							CHANNELS 3 Xrotation Yrotation Zrotation
							JOINT Neck
							{
								OFFSET 0.000000 10.314075 0.188496
								CHANNELS 3 Xrotation Yrotation Zrotation
								JOINT Head
								{
									OFFSET 0.000000 7.643700 -2.377400
									CHANNELS 3 Xrotation Yrotation Zrotation
									JOINT HeadTop_End
									{
										OFFSET 0.000000 43.788605 -13.619600
										CHANNELS 3 Xrotation Yrotation Zrotation
										End Site
										{
											OFFSET 0 0 0
										}
									}
								}
							}
						}
						JOINT LeftShoulder_virtual
						{
							OFFSET 0.000000 0.000000 0.000000
							CHANNELS 3 Xrotation Yrotation Zrotation
							JOINT LeftShoulder
							{
								OFFSET 2.196100 4.412489 0.087492
								CHANNELS 3 Xrotation Yrotation Zrotation
								JOINT LeftShoulder_split
								{
									OFFSET 2.196100 4.412489 0.087492
									CHANNELS 3 Xrotation Yrotation Zrotation
									JOINT LeftArm
									{
										OFFSET 8.771219 -2.981674 -0.026999
										CHANNELS 3 Xrotation Yrotation Zrotation
										JOINT LeftForeArm
										{
											OFFSET 8.512804 0.000000 -0.000000
											CHANNELS 3 Xrotation Yrotation Zrotation
											JOINT LeftHand
											{
												OFFSET 18.484802 0.000000 -0.000000
												CHANNELS 3 Xrotation Yrotation Zrotation
												End Site
												{
													OFFSET 0 0 0
												}
											}
										}
									}
								}
							}
						}
						JOINT RightShoulder_virtual
						{
							OFFSET 0.000000 0.000000 0.000000
							CHANNELS 3 Xrotation Yrotation Zrotation
							JOINT RightShoulder
							{
								OFFSET -2.196100 4.412496 0.070690
								CHANNELS 3 Xrotation Yrotation Zrotation
								JOINT RightShoulder_split
								{
									OFFSET -2.196100 4.412496 0.070690
									CHANNELS 3 Xrotation Yrotation Zrotation
									JOINT RightArm
									{
										OFFSET -8.771282 -2.981682 -0.094208
										CHANNELS 3 Xrotation Yrotation Zrotation
										JOINT RightForeArm
										{
											OFFSET -8.494598 0.000000 0.000000
											CHANNELS 3 Xrotation Yrotation Zrotation
											JOINT RightHand
											{
												OFFSET -18.483803 0.000000 0.000001
												CHANNELS 3 Xrotation Yrotation Zrotation
												End Site
												{
													OFFSET 0 0 0
												}
											}
										}
									}
								}
							}
						}
					}
				}
			}
		}
	}
}
MOTION
Frames: 6
Frame Time: 0.03333333
-56.003998 12.546397 2.087902 0.000000 0.000000 0.000000 5.557545 10.652040 -42.492461 -115.706205 -0.233370 4.065048 30.872984 2.051913 0.697468 37.401040 0.259832 32.397063 -4.697308 2.816049 5.020146 0.000000 0.000000 0.000000 7.758661 12.526929 -44.761372 -96.363820 -18.525985 -19.369049 119.686894 13.321160 0.244697 13.644237 25.937450 9.129691 -55.957725 3.873413 0.634380 0.000000 0.000000 0.000000 4.380069 8.377227 -45.869604 23.744635 -3.867268 -14.529341 4.083206 1.261471 -2.948039 1.852818 0.659693 2.705816 0.000000 0.000000 0.000000 4.843678 1.159840 -3.195498 -2.700923 -1.248370 1.844265 -4.018142 18.302573 4.214129 0.000000 0.000000 0.000000 4.481608 1.374463 -2.931275 0.347916 -23.929274 -12.572320 -3.644346 -2.390152 -1.686998 -39.738075 34.653395 -10.858619 4.389396 -69.841170 4.153588 0.000000 0.000000 0.000000 4.880502 1.178604 -2.986759 2.807434 9.110027 -0.005172 8.241275 7.650591 -0.690953 -45.544559 -33.675544 -10.730172 -1.676727 50.760446 0.164881 0.000000 0.000000 0.000000 
-55.502922 13.336175 1.560135 0.000000 0.000000 0.000000 5.040143 7.414258 -45.481014 -117.735932 -2.399709 6.062071 40.715420 4.715358 0.107601 33.954991 1.451494 32.862793 -5.074096 3.045991 3.417099 0.000000 0.000000 0.000000 7.438848 9.966574 -47.520549 -92.006896 -22.079964 -15.073736 114.631598 12.372518 0.164431 13.134609 26.045011 9.311041 -51.501692 4.062420 0.055839 0.000000 0.000000 0.000000 4.209624 7.257030 -48.356616 23.171555 -4.628170 -14.781450 4.319268 0.887557 -2.989625 2.021348 1.617043 2.379286 0.000000 0.000000 0.000000 4.676372 0.819794 -3.295145 -2.469551 -0.734667 2.047798 -4.011128 19.709221 4.617683 0.000000 0.000000 0.000000 4.609164 1.044966 -3.073219 1.444973 -22.678812 -11.249742 -3.787301 -3.210353 -1.582299 -42.411909 32.141443 -9.271267 3.747270 -66.890959 3.788099 0.000000 0.000000 0.000000 4.958758 0.859146 -3.093782 2.786834 8.775606 -0.943208 8.226908 6.565318 -1.296779 -45.627190 -38.512711 -13.184908 -1.256999 51.820700 0.091456 0.000000 0.000000 0.000000 
-55.036949 14.308195 1.054575 0.000000 0.000000 0.000000 5.211056 3.647792 -49.070039 -119.735880 -5.458241 8.585765 55.563739 6.586217 -0.668889 28.337616 2.682309 33.485078 -7.240730 3.137887 2.361274 0.000000 0.000000 0.000000 8.010872 7.095696 -50.951193 -87.619668 -25.504241 -10.241827 108.242044 11.742095 0.775549 13.963810 26.319676 10.087408 -47.633032 4.218590 -0.766493 0.000000 0.000000 0.000000 4.807251 5.360080 -51.191175 22.795522 -5.465349 -14.358808 4.409505 0.376665 -2.940834 2.125356 2.855201 1.819845 0.000000 0.000000 0.000000 4.353997 0.313930 -3.229312 -2.189874 -0.083276 2.215496 -4.471708 20.955560 5.399534 0.000000 0.000000 0.000000 4.594328 0.566311 -3.106930 2.458309 -21.109564 -9.584321 -3.733233 -3.657022 -1.860659 -46.145158 28.756749 -7.194077 2.665581 -63.152475 2.928251 0.000000 0.000000 0.000000 4.875892 0.411266 -3.057263 2.610906 7.931860 -1.371034 8.088486 5.227715 -1.868559 -46.871343 -44.302533 -14.683240 -0.982954 54.103930 0.221922 0.000000 0.000000 0.000000 
-54.672012 15.487362 0.453281 0.000000 0.000000 0.000000 6.229701 -0.050417 -52.587843 -120.530204 -8.383428 11.104846 71.376153 7.391422 -1.453881 20.032771 3.299354 34.291573 -10.727553 2.974528 2.088556 0.000000 0.000000 0.000000 9.311836 3.860816 -54.446013 -84.067403 -28.114532 -5.633871 99.859674 11.538507 2.219128 17.014483 26.877723 11.912279 -43.034365 4.335456 -1.719071 0.000000 0.000000 0.000000 6.120964 2.843865 -53.965854 22.525771 -6.347168 -13.455793 4.320261 -0.201635 -2.859630 1.937348 3.778666 1.115485 0.000000 0.000000 0.000000 3.942226 -0.292686 -3.047151 -1.846867 0.630705 2.278205 -5.433398 21.902362 6.560004 0.000000 0.000000 0.000000 4.454109 0.004718 -3.050431 3.283464 -19.360267 -7.625000 -3.050493 -3.695661 -2.125661 -50.270547 25.168479 -5.228993 1.462039 -59.784352 1.776506 0.000000 0.000000 0.000000 4.672665 -0.126375 -2.941233 2.317185 6.523316 -1.477607 7.929157 3.873939 -2.248077 -48.727215 -50.866201 -15.269344 -0.901497 57.605378 0.569954 0.000000 0.000000 0.000000 
-54.397560 16.831696 -0.306013 0.000000 0.000000 0.000000 8.061058 -3.046959 -55.545817 -119.712548 -10.895426 13.346572 84.359571 6.536048 -1.464740 10.858084 2.894070 33.791118 -15.458451 2.435153 2.888990 0.000000 0.000000 0.000000 11.003076 0.499779 -57.395446 -81.838609 -29.691471 -1.947601 89.408010 11.535988 4.345053 21.725421 27.664858 15.087813 -36.285595 4.358764 -2.554662 0.000000 0.000000 0.000000 8.049516 -0.092572 -56.375910 22.430240 -7.279553 -12.363056 4.116538 -0.754825 -2.803551 1.641987 3.821749 0.911561 0.000000 0.000000 0.000000 3.577227 -0.925373 -2.806313 -1.541264 1.325361 2.168467 -6.816186 22.427455 7.938511 0.000000 0.000000 0.000000 4.202450 -0.581484 -2.959444 3.830510 -17.933160 -5.519953 -1.761308 -3.192371 -2.309279 -54.926182 21.244661 -3.665908 0.678055 -56.467650 0.709782 0.000000 0.000000 0.000000 4.450039 -0.713870 -2.806113 1.958693 4.843058 -1.406994 8.084669 2.865389 -2.471545 -50.162856 -57.664924 -14.712955 -0.939959 61.249981 1.004212 0.000000 0.000000 0.000000 
-54.190887 18.242630 -1.181047 0.000000 0.000000 0.000000 10.641172 -5.577594 -57.555996 -117.415569 -13.242916 15.163114 93.279088 4.229206 -0.630173 3.110969 2.328441 31.622215 -21.278606 1.411590 4.356159 0.000000 0.000000 0.000000 12.926831 -2.743075 -59.351878 -81.125360 -30.259459 0.560492 77.572883 11.209737 7.029552 26.404070 28.145546 18.845752 -27.066030 4.255420 -3.076419 0.000000 0.000000 0.000000 10.533380 -2.944387 -58.091510 22.636258 -8.248893 -11.267743 3.878841 -1.241632 -2.801703 1.645008 2.934189 0.724919 0.000000 0.000000 0.000000 3.298817 -1.540531 -2.568556 -1.459810 1.926230 1.957360 -8.506026 22.505374 9.339366 0.000000 0.000000 0.000000 3.950105 -1.152457 -2.869957 4.109617 -17.302111 -3.296389 -0.196534 -2.495455 -2.376499 -59.886580 16.921787 -2.506137 0.344210 -52.317169 -0.083172 0.000000 0.000000 0.000000 4.285728 -1.305557 -2.703073 1.607683 3.387038 -1.236468 8.220456 2.483236 -2.744198 -49.528748 -63.966866 -12.160236 -0.976142 63.691343 1.379853 0.000000 0.000000 0.000000 
